<svg xmlns="http://www.w3.org/2000/svg" viewBox="0 0 500 500">
<g transform="matrix(2.7268462852861646 0 0 2.7268462852861646 250 251)">
<g>
<g transform="matrix(1.3333333333333335 0 0 1.3333333333333335 0.0026666666666699257 -23.168666666666677)">
<path style="fill: rgb(192,78,1); fill-rule: nonzero; opacity: 1;" transform="translate(-50.001999999999995, -32.62349999999999)" d="m 82.707 48.977 c 0 -18.066 -14.645 -32.707 -32.707 -32.707 c -18.066 0 -32.707 14.645 -32.707 32.707 h 65.418 z"/>
</g>
<g transform="matrix(1.3333333333333335 0 0 1.3333333333333335 -0.3676635430382711 44.96031266666668)">
<path style="fill: rgb(192,78,1); fill-rule: nonzero; opacity: 1;" transform="translate(-49.724252342721286, -83.7202345)" d="m 49.961 83.73 c 0.007812 0 -0.13672 -0.007813 -0.38281 -0.019531 c -0.18359 0.011718 -0.10547 0.019531 0.38281 0.019531 z"/>
</g>
<g transform="matrix(1.3333333333333335 0 0 1.3333333333333335 0.0043666666666553056 23.041186666666672)">
<path style="fill: rgb(192,78,1); fill-rule: nonzero; opacity: 1;" transform="translate(-50.00327499999999, -67.28089)" d="m 95.773 50.945 c -22.812 -0.125 -68.73 -0.125 -91.551 0 v 0.26563 c 1.9023 0.25 4.0547 0.47266 6.3164 0.66797 c 1.6836 0.14453 3.3125 0.62891 4.8477 1.3242 c 1.6797 0.76172 4.2344 1.5117 2.6172 2.2578 c 4.2461 1.4531 16.133 2.8711 0.41406 4.2578 c 7.9922 1.3828 -3.7461 2.7305 1.4062 4.0352 c 9.293 1.3047 -6.6406 2.5664 1.8906 3.7773 c -1.6445 1.2109 7.2578 2.375 2.3516 3.4805 c -0.76172 1.1055 -2.6641 2.1562 2.7656 3.1406 c -5.75 0.98828 9.5703 1.9102 3.1406 2.7656 c 3.6875 0.85547 0.79688 1.6406 3.4805 2.3477 c -6.1797 0.71094 8.0391 1.3438 3.7773 1.8945 c -2.9609 0.55078 2.6289 1.0195 4.0352 1.4023 c 5.6953 0.37891 4.9766 0.67188 4.2578 0.87109 c 1.7031 0.14453 3.3359 0.23828 4.0547 0.27734 c 0.52734 -0.039063 3.2383 -0.13281 4.8242 -0.27734 c -1.6484 -0.19531 1.0742 -0.48828 4.2578 -0.87109 c -0.82422 -0.37891 0.97656 -0.85156 4.0352 -1.4023 c 5.9023 -0.55078 4.3672 -1.1875 3.7773 -1.8945 c 7.2969 -0.71094 4.7695 -1.4961 3.4805 -2.3477 c -3.4414 -0.85547 -1.543 -1.7773 3.1406 -2.7656 c 2.8398 -0.98828 5.5039 -2.0352 2.7656 -3.1406 c -4.3125 -1.1055 -3.7969 -2.2656 2.3516 -3.4805 c -3.2852 -1.2109 4.7344 -2.4727 1.8945 -3.7773 c -0.55078 -1.3047 -3.9336 -2.6523 1.4023 -4.0352 c -2.4922 -1.3828 -1.1367 -2.8047 0.87109 -4.2578 c 7.9766 -1.0742 6.125 -2.168 3.2734 -3.2734 c 3.3789 -0.30078 6.7539 -0.53125 10.133 -0.97656 v -0.26563 z"/>
</g>
</g>
</g>
</svg>
